<?xml version="1.0" standalone="no"?><!DOCTYPE svg PUBLIC "-//W3C//DTD SVG 1.1//EN" "http://www.w3.org/Graphics/SVG/1.1/DTD/svg11.dtd"><svg t="1551341367313" class="icon" style="" viewBox="0 0 1024 1024" version="1.1" xmlns="http://www.w3.org/2000/svg" p-id="11259" xmlns:xlink="http://www.w3.org/1999/xlink" width="200" height="200"><defs><style type="text/css"></style></defs><path d="M321.30382 421.60113s-4.155646 8.057513-4.260024 8.268315c-0.414439 0.837064 0.113587 1.435699 0.929162 1.435698h5.931083s14.031575-27.350928 14.172791-27.629267c0.148379-0.276293 0.048095-0.62831-0.385787-0.62831h-5.62102c-0.975211 0-1.423419 0.343831-1.760087 0.991583-0.141216 0.264013-4.337795 8.484232-4.337795 8.484232-0.317225 0.706081-0.977257 0.635473-1.248434 0 0 0-3.705392-7.800663-3.903913-8.188496-0.426719-0.846274-1.113357-1.287319-2.186805-1.287319h-5.421476c-0.290619 0-0.356111 0.208754-0.28141 0.400112 0.075725 0.191358 8.373715 18.153452 8.373715 18.153452M339.956645 418.957931c2.092661 1.862417 5.302773 2.791579 8.816807 2.791579 3.780093 0 6.646374-0.975211 8.782013-2.834558 1.988284-1.765203 3.077082-4.660136 3.077082-6.898107 0-2.859118-0.9967-5.17179-2.990101-6.936993-2.13564-1.862417-5.089925-2.790556-8.868994-2.790556-3.780093 0-6.602372 0.970094-8.698103 2.829441-1.995447 1.763157-3.113921 4.578272-3.113921 6.898108 0.001023 2.858094 1.189082 5.331425 2.995217 6.941086m5.036714-8.752338c1.842974-3.448542 4.107551-4.79419 6.646373-3.691066 2.567475 1.11745 2.848884 3.654226 0.918929 7.317663-1.765203 3.344165-4.034896 4.752234-6.65149 3.687995-2.594081-1.059122-2.868327-3.668553-0.913812-7.314592M393.507282 421.60113s-4.155646 8.057513-4.257977 8.268315c-0.412392 0.837064 0.11154 1.435699 0.926092 1.435698h5.928013l14.177907-27.629267c0.141216-0.276293 0.044002-0.62831-0.387833-0.62831h-5.621021c-0.975211 0-1.421372 0.343831-1.760086 0.991583-0.141216 0.264013-4.337795 8.484232-4.337795 8.484232-0.317225 0.706081-0.982374 0.635473-1.246387 0 0 0-3.707438-7.800663-3.901867-8.188496-0.424672-0.846274-1.119497-1.287319-2.193968-1.287319h-5.41943c-0.286526 0-0.35918 0.208754-0.279363 0.400112 0.078795 0.191358 8.373715 18.153452 8.373715 18.153452M412.104849 418.957931c2.092661 1.862417 5.302773 2.791579 8.820899 2.791579 3.776 0 6.644327-0.975211 8.777921-2.834558 1.988284-1.765203 3.077082-4.660136 3.077082-6.898107 0-2.859118-0.998747-5.17179-2.990101-6.936993-2.133593-1.862417-5.088902-2.790556-8.864902-2.790556-3.78521 0-6.602372 0.970094-8.704242 2.829441-1.990331 1.763157-3.110851 4.578272-3.110851 6.898108 0 2.858094 1.191128 5.331425 2.994194 6.941086m5.036713-8.752338c1.841951-3.448542 4.109598-4.79419 6.646374-3.691066 2.568499 1.11745 2.848884 3.654226 0.918929 7.317663-1.765203 3.344165-4.03285 4.752234-6.648421 3.687995-2.595105-1.059122-2.871397-3.668553-0.916882-7.314592M362.441752 421.259346h6.503111c0.669242 0 1.051959-0.419556 1.051959-1.035586v-13.280468c4.412496-1.159406 7.245008 0.046049 7.245008 1.932003v11.396561c0 0.610914 0.332575 0.986467 1.030469 0.986467h6.534834v-12.072967c0-6.086625-7.78122-8.976442-21.129227-5.208628-0.74906 0.245593-1.285273 0.926092-1.285272 1.871627v15.408945l0.048095 0.036839v-0.034793zM455.66597 420.333254c0.74906-0.249687 1.292436-0.931209 1.292436-1.871627v-15.414061h-6.554276c-0.669242 0-1.055029 0.419556-1.055029 1.040702v13.277398c-4.412496 1.159406-7.248078-0.051165-7.248077-1.935072v-11.398608c0-0.601704-0.324388-0.984421-1.025353-0.98442h-6.53688v12.075013c0 6.085602 7.785314 8.976442 21.127179 5.210675" fill="#717071" p-id="11260"></path><path d="M456.945103 516.951779h-26.637683v3.107781c0 23.307845-8.051373 34.689057-24.139794 34.130331-4.994758 0-11.654434-1.379417-19.978007-4.162809v-33.075303h-27.470654v98.838075h3.604084v-0.021489c0.401136 0.01228 0.841158 0.020466 1.307785 0.021489h0.214895c3.504824-0.00307 8.528234-0.39295 12.282744-2.270716 8.221242-4.169973 9.965979-8.227382 10.061146-24.962531v-15.220657c7.764847 2.211365 14.424524 3.329838 19.978007 3.329839 34.402531 0.546446 51.324946-18.314111 50.778501-56.605206v-3.108804z" fill="#D61519" p-id="11261"></path><path d="M406.166603 554.188868c-4.994758 0-11.654434-1.379417-19.978007-4.16281v-20.546965c-8.528234 4.7727-18.000979 7.0383-27.470655 9.351996v34.330899c9.518794 6.707772 18.779715 13.556761 27.470655 20.986987v-20.814048c7.764847 2.211365 14.424524 3.329838 19.978007 3.329838 14.19121 0.225127 25.400506-2.861164 33.643238-9.241478-5.995551-6.137791-11.812023-12.547781-17.711384-18.774599-3.9121 3.921309-9.219989 5.773494-15.931854 5.54018zM456.945103 516.951779h-26.637683v3.107781c0 4.235464-0.267083 8.076956-0.799203 11.523451 9.013281-0.485047 18.027585-0.432859 27.04189-0.365321 0.312108-3.51915 0.452301-7.229658 0.39602-11.15813v-3.107781z" fill="#E60014" p-id="11262"></path><path d="M412.82628 453.464839c-9.989515 0-19.146059 2.496867-27.470655 7.491625v-7.237845h-5.770424c-3.347235 0.109494-7.560186 0.618077-10.816346 2.24718-8.027837 4.071735-9.878998 8.042163-10.050914 23.806196v34.534537h27.470655v-28.377304c8.323573-4.994758 16.362666-7.491625 24.139793-7.491625 10.4367-0.428765 16.782222 5.78168 19.041682 18.633383l20.48352-23.165606c-7.063883-13.287631-19.402909-20.10592-37.027311-20.440541z" fill="#0096FF" p-id="11263"></path><path d="M449.841312 473.880821l-20.469194 23.206538c0.62217 3.545756 0.934279 7.593955 0.934278 12.149714v5.069459h26.637684v-5.069459c0.001023-14.688537-2.371-26.468838-7.102768-35.356252z" fill="#69CD00" p-id="11264"></path><path d="M379.585201 453.719642c-3.347235 0.109494-7.560186 0.618077-10.816346 2.24718-8.027837 4.071735-9.878998 8.042163-10.050914 23.806196v10.495028l26.637684-30.126134v-6.423293h-5.770424zM305.674864 455.282231c-0.053212-0.013303-0.107447-0.025583-0.160659-0.039909a54.357002 54.357002 0 0 0-2.752693-0.620124c-0.137123-0.027629-3.462868-0.592494-3.496638-0.597611-1.077541-0.150426-7.221472-0.636496-7.547906-0.649799-0.832971-0.032746-5.895267-0.061398-7.104815-0.02149h-0.026606c-6.811126 0-13.118785 0.300852-18.935258 0.895393-3.695159 0.63752-8.79941 1.586125-11.504008 2.781347-5.658883 2.50096-9.564843 7.028067-9.585309 23.838941l-0.004094 0.004093a603.044576 603.044576 0 0 1 5.15951-0.779759c2.607384-0.37146 5.16258-0.690732 7.689123-0.981351a263.337617 263.337617 0 0 1 7.163143-0.737804c6.39464-0.556679 12.511965-0.837064 18.349927-0.837064 0.949628-0.067538 5.216815-0.070608 5.28947-0.066515 1.636267 0.089028 3.149736 0.287549 4.544503 0.593518 8.728802 1.916653 12.68695 8.130168 11.847839 18.653848v3.335978H292.925493c-24.184819-1.051959-39.983643 3.796466-48.420803 14.251586h87.6165v-17.587564c1.263783-22.771633-7.55814-36.576033-26.446326-41.435714z" fill="#FFB400" p-id="11265"></path><path d="M64.085574 516.933359v59.901275s10.100032 1.108241 16.504906-2.093684c8.498558-4.311189 10.100032-8.498558 10.100032-26.604938v-31.202653H64.085574z" fill="#D61519" p-id="11266"></path><path d="M74.714655 433.578929c-7.364735 3.682879-10.556427 10.556427-10.556426 29.215392 0 0 3.682879-3.682879 9.575076-5.892197 4.296863-1.595334 7.364735-3.682879 9.575076-5.278213 6.383384-4.787026 7.364735-10.556427 7.364735-20.62269-0.122797 0-10.18906-0.613984-15.958461 2.577708zM284.704251 453.354322c-6.811126 0-13.118785 0.300852-18.935258 0.895393-3.695159 0.63752-8.79941 1.586125-11.504009 2.781346-5.659907 2.50096-9.564843 7.028067-9.585309 23.842011 13.888312-2.215458 26.682709-3.334955 38.356586-3.334955 3.770883-0.268106 7.042393-0.086981 9.834996 0.527003l18.532076-20.958334c-7.098675-2.850931-15.992229-4.107551-26.699082-3.752464z" fill="#69CD00" p-id="11267"></path><path d="M140.343375 453.499631v0.020466a48.551786 48.551786 0 0 0-1.217734-0.020466h-0.428765c-3.498684 0.01228-8.447393 0.413416-12.157901 2.269693-8.469905 4.295839-10.066263 8.469905-10.066263 26.514887v2.544963h-0.00921v19.279089l26.637683-30.126135v-20.48352h-2.75781z" fill="#FFB400" p-id="11268"></path><path d="M430.380074 514.307555h26.564006v2.644224h-26.564006zM358.717941 514.307555h27.470655v2.644224h-27.470655z" fill="#FFFFFF" p-id="11269"></path><path d="M260.699534 514.307555l11.94096-13.504571c-13.071713 1.793856-22.338774 6.329149-28.136827 13.504571h16.195867z" fill="#69CD00" p-id="11270"></path><path d="M187.274244 514.307555h27.432793v2.644224h-27.432793z" fill="#FFFFFF" p-id="11271"></path><path d="M214.707037 514.307555v-43.272549l-27.470655 19.22997v24.042579z" fill="#69CD00" p-id="11272"></path><path d="M116.462478 514.307555h26.637684v2.644224h-26.637684z" fill="#FFFFFF" p-id="11273"></path><path d="M64.085574 516.933359v21.511943a204.149587 204.149587 0 0 0 26.596751 0.623194v-22.135137H64.085574z" fill="#E60014" p-id="11274"></path><path d="M64.062038 514.289136h26.624381v2.644223H64.062038z" fill="#FFFFFF" p-id="11275"></path><path d="M237.182934 538.372647v4.16281c0.671289 22.775726 12.759605 34.129308 38.292118 34.129308 9.989515 0 19.978007-2.223644 29.967522-6.659676v6.871501h26.637684v-59.925835h-89.342818c-3.663436 5.730515-5.480828 12.875239-5.554506 21.421892z m55.773258-15.81622h11.654434v25.805735c-6.659677 4.448312-15.269775 6.659677-25.805736 6.659677-9.442046 0-13.96199-3.590781-14.623045-10.861372l-0.110517-5.728468c-0.220011-11.236925 8.905834-16.422018 28.884864-15.875572z" fill="#D61519" p-id="11276"></path><path d="M265.100774 548.177967c-8.213056-8.460696-17.07898-16.21224-26.03598-23.169699-1.216711 3.989871-1.839905 8.444323-1.88186 13.364379v4.16281c0.671289 22.775726 12.759605 34.129308 38.292118 34.129308 3.922333 0 7.844665-0.347924 11.765975-1.033539-5.067412-7.822153-10.907421-15.249309-17.240663-22.23542-2.356674-1.13587-3.964288-2.874467-4.89959-5.217839zM324.038094 516.933359c-6.551206 18.163685-13.011338 36.261878-20.797675 54.012148a84.566024 84.566024 0 0 0 2.201132-0.940418v6.871501h5.726421c3.358491-0.104377 7.608282-0.608867 10.887978-2.248204 7.718799-3.91517 9.727549-7.733125 10.023284-22.033829v-35.661198h-8.04114z" fill="#E60014" p-id="11277"></path><path d="M90.696652 514.278903v-61.610196s-2.715855 3.703345-8.022721 6.912433c-3.703345 2.097778-6.912433 3.209088-10.615778 5.307889-6.418176 3.209088-8.022721 6.418176-8.022721 11.232832v38.158065h26.66122z" fill="#FFB400" p-id="11278"></path><path d="M143.100162 514.307555v-46.031382l-26.637684 22.833031v23.198351z" fill="#69CD00" p-id="11279"></path><path d="M207.879538 453.499631c-3.307326 0.124843-7.395434 0.64673-10.57587 2.236948-8.469905 4.296863-10.066263 8.469905-10.066263 26.514887v2.545985h-0.001023v25.996071l27.470655-31.067576v-26.226315h-6.827499z" fill="#0096FF" p-id="11280"></path><path d="M140.343375 453.499631v0.020466a48.551786 48.551786 0 0 0-1.217734-0.020466h-0.428765c-3.498684 0.01228-8.447393 0.413416-12.157901 2.269693-8.469905 4.295839-10.066263 8.469905-10.066263 26.514887v2.544963h-0.00921v19.279089l26.637683-30.126135v-20.48352h-2.75781z" fill="#FFB400" p-id="11281"></path><path d="M187.237405 516.951779v27.248597c-9.989515 6.113231-19.431561 9.156544-28.302603 9.156544-10.54824 0-15.816221-7.491625-15.81622-22.475897v-13.929244h-26.637684v13.929244c-0.558725 31.085996 12.20088 46.330188 38.291095 45.783742 11.654434 0 22.475897-2.496867 32.465412-7.491624v7.483438h3.586688v-0.042979c3.422959 0.104377 9.464559-0.078795 13.805424-2.249227 8.469905-4.295839 10.066263-8.469905 10.066263-26.514887v-2.545986h0.01228v-28.353768h-27.470655z" fill="#D61519" p-id="11282"></path><path d="M116.479875 516.951779v13.929244a99.629091 99.629091 0 0 0 0.062421 5.539156 203.722868 203.722868 0 0 0 26.575262-6.325055v-13.143345h-26.637683zM187.237405 516.951779v27.248597c-9.989515 6.113231-19.431561 9.156544-28.302603 9.156544-4.733814 0-8.395204-1.521656-11.002588-4.539386-5.426593 7.324826-11.235902 14.476713-17.043165 21.680788 6.054903 4.315282 14.014178 6.373151 23.883967 6.166443 6.347568 0 12.44545-0.747014 18.298761-2.227737 10.929934-14.987343 24.831548-28.483728 39.031969-39.640836 0.76748-0.460488 1.6465-0.808412 2.604314-1.078565v-16.765848h-27.470655z" fill="#E60014" p-id="11283"></path><path d="M332.107887 514.307555h-87.564312a44.251853 44.251853 0 0 0-1.827624 2.644224h89.390913v-2.644224z" fill="#FFFFFF" p-id="11284"></path><path d="M868.948645 581.954235v-96.950076c-11.438517-1.7519-22.423709-2.638083-32.976042-2.638083-27.699875-0.432859-41.550325 13.850449-41.550325 42.869366v11.212366c-0.886183 28.586059 12.747325 42.425252 40.890292 41.550325 6.595208 0 12.963243-0.443092 19.125593-1.319041v5.276166c0.432859 13.623275-6.595208 20.218484-21.104667 19.785626-8.438183 0-16.34527-0.317225-23.747867-0.936325-9.643638 0.192382-9.82374 8.603959-9.81453 9.524934 10.089799 2.184759 21.277606 3.282766 33.562397 3.282766 24.619724 0.431835 36.491099-10.120498 35.615149-31.658024z m-14.509459-16.488533c-3.957125 1.319042-10.336416 1.978051-19.125593 1.978051-18.466584 0.887206-27.267017-9.449209-26.380833-30.996968V525.235442c-0.443092-21.104667 8.573259-31.43085 27.040866-30.997991 7.028067 0 13.190417 0.443092 18.466584 1.319042v69.909209zM725.204823 524.57541l-6.595208-2.638084c-11.871375-4.389984-17.590634-9.893324-17.147542-16.487509 0.432859-7.471159 7.028067-11.212366 19.785625-11.212366 4.993734 0 10.69355 0.301875 17.064654 0.8913 9.895371-0.568958 9.843182-8.830109 9.821693-9.500375-8.754385-2.169409-17.936511-3.2623-27.546379-3.2623-21.547759 0.443092-32.759101 8.141424-33.635052 23.083741-0.886183 11.871375 7.687076 21.331841 25.720801 28.359908l6.595209 2.638083c12.747325 5.276167 19.125593 11.212366 19.125593 17.806552 0 8.800433-6.821359 13.190417-20.444635 13.190416-6.213515 0-12.341073-0.25071-18.384719-0.748036v0.014326c-8.919137 0-9.950629 6.307659-10.05603 8.261151 10.916631 2.448772 20.621667 3.684926 29.099758 3.684925 22.856567 0.432859 34.295084-7.687076 34.295084-24.401759 0.433882-11.873422-8.79941-21.765723-27.698852-29.679973zM674.768107 566.228065v-1.421372a176.397522 176.397522 0 0 1-30.337959 2.638083c-18.909675 0.443092-28.142967-9.233292-27.699875-29.018917v-1.978051h63.974033v-8.574282c-0.443092-29.894867-13.633508-45.064358-39.57125-45.50745-25.061792 0.887206-38.036291 16.055674-38.912242 45.50745v7.254217c-0.443092 29.462009 13.406335 43.961234 41.550325 43.528376 6.572696 0 12.654204-0.419556 18.282389-1.227967 10.465352-1.981121 12.395308-8.287757 12.714579-11.200087z m-58.037834-43.630706c0-18.466584 8.131191-27.699875 24.402783-27.699875 16.261359-0.432859 24.40176 8.800433 24.401759 27.699875v1.979074H616.730273v-1.979074zM931.257759 482.366076c-8.800433 0-19.125593 3.741207-30.996968 11.212366v-9.233292h-0.288572c-14.902408 0.357134-14.2127 13.015432-14.2127 13.015432l-0.008186-0.00307v78.660524h0.240477c12.246929-0.472767 14.047947-8.246825 14.268981-11.418051V504.789785c13.623275-7.471159 23.5166-10.985192 29.677927-10.552334 10.552334-0.432859 15.8285 7.481392 15.8285 23.74275v58.037835h0.876973c12.843516-0.49528 14.198374-9.022491 14.291495-11.846816v-0.703011c-0.005117-0.125867-0.011256-0.201591-0.011257-0.201592l0.011257 0.004093V517.980201c0.432859-24.175609-9.460466-36.046984-29.677927-35.614125z" fill="#64696B" p-id="11285"></path><path d="M583.841212 453.930443c-11.237949 0.306992-10.716063 9.872858-10.716063 9.872858l-0.064468-0.020466v25.556049c-6.514367-1.620917-13.430894-2.441609-20.75572-2.441608-23.198352 0-34.797527 12.81998-34.797527 38.45994v15.261588c0 23.608697 10.577916 35.407418 31.745005 35.407418 8.136308 0 16.272615-2.041496 24.419156-6.104021v4.273326h12.81998V453.930443h-2.650363z m-10.780531 106.223277c-8.146541 3.662413-15.261589 5.494131-21.366634 5.494131-14.250562 0.410346-21.166065-7.93574-20.756742-25.029047v-15.261588c-0.410346-18.314111 7.116071-27.260877 22.587437-26.860765 7.325849 0 13.831007 0.819668 19.534916 2.441609v59.21566z" fill="#63696B" p-id="11286"></path><path d="M767.232009 472.76951c11.812023 0 11.264555-9.885138 11.264554-9.885138l0.02149 0.007164v-6.506181h-3.739161c-10.165524 0.849344-9.677407 9.81453-9.677407 9.814529l-0.011256-0.004093v6.66991h2.14178v-0.096191z" fill="#F50F2D" p-id="11287"></path><path d="M778.518053 567.05592v-75.879178h-2.809999c-11.125385 0.36532-10.606569 9.867742-10.606569 9.867742l-0.011256-0.004093v74.976621h4.161786c7.933693-0.844228 9.106402-6.764054 9.266038-8.961092z" fill="#64696B" p-id="11288"></path></svg>