<?xml version="1.0" encoding="UTF-8"?>
<svg width="101px" height="24px" viewBox="0 0 101 24" version="1.1" xmlns="http://www.w3.org/2000/svg" xmlns:xlink="http://www.w3.org/1999/xlink">
    <!-- Generator: Sketch 53.2 (72643) - https://sketchapp.com -->
    <title>iuapdesignz</title>
    <desc>Created with Sketch.</desc>
    <g id="Page-1" stroke="none" stroke-width="1" fill="none" fill-rule="evenodd">
        <g id="首页-蓝" transform="translate(-87.000000, -21.000000)" fill-rule="nonzero">
            <g id="iuapdesignz" transform="translate(87.000000, 21.000000)">
                <path d="M28.8565032,2.19825757 C28.8565032,2.19825757 28.3904494,3.10190389 28.3787435,3.12554523 C28.3322643,3.21942157 28.3914822,3.28655821 28.4829486,3.28655809 L29.1481167,3.28655809 C29.1481167,3.28655809 30.7217513,0.219164299 30.7375886,0.18794871 C30.7542293,0.156962579 30.7429825,0.117484037 30.6943228,0.117484037 L30.063928,0.117484037 C29.9545586,0.117484037 29.9042923,0.156044523 29.8665351,0.228689607 C29.8506978,0.258298542 29.3800534,1.18019226 29.3800534,1.18019226 C29.3444768,1.25937892 29.2704545,1.25146026 29.2400421,1.18019226 C29.2400421,1.18019226 28.8244841,0.305351551 28.8022201,0.261856262 C28.7543638,0.166947028 28.6773576,0.117484037 28.556971,0.117484037 L27.948955,0.117484037 C27.9163622,0.117484037 27.9090173,0.140895701 27.917395,0.162356411 C27.9258875,0.183817121 28.8565032,2.19825757 28.8565032,2.19825757 L28.8565032,2.19825757 Z M30.9484088,1.90182404 C31.1830997,2.11069323 31.5431123,2.21489832 31.9372096,2.21489832 C32.3611452,2.21489832 32.6825973,2.10552886 32.9221082,1.89700396 C33.1450933,1.69903727 33.2672015,1.37437189 33.2672015,1.12338449 C33.2672015,0.802735738 33.1554221,0.543370654 32.9318631,0.345403963 C32.6923521,0.136534766 32.3610304,0.0324444112 31.9372096,0.0324444112 C31.5132739,0.0324444112 31.1967566,0.14124 30.9617214,0.349764897 C30.7379329,0.547502131 30.6124966,0.863215963 30.6124966,1.12338449 C30.6126113,1.44391839 30.7458516,1.72130131 30.9484088,1.90182404 L30.9484088,1.90182404 Z M31.5132739,0.920253421 C31.7199626,0.533501047 31.9739338,0.382587252 32.2586615,0.506302093 C32.5466027,0.631623589 32.5781625,0.916121832 32.361719,1.32697458 C32.1637523,1.70202112 31.9092073,1.8599354 31.6157575,1.7405815 C31.3248325,1.62180146 31.294076,1.32915499 31.5132739,0.920253421 L31.5132739,0.920253421 Z M36.9540877,2.19825757 C36.9540877,2.19825757 36.4880339,3.10190389 36.4765576,3.12554523 C36.430308,3.21942157 36.4890667,3.28655821 36.5804184,3.28655809 L37.2452422,3.28655809 L38.8352879,0.18794871 C38.8511252,0.156962579 38.8402227,0.117484037 38.7917926,0.117484037 L38.1613977,0.117484037 C38.0520283,0.117484037 38.0019915,0.156044523 37.9640049,0.228689607 C37.9481676,0.258298542 37.4775232,1.18019226 37.4775232,1.18019226 C37.4419466,1.25937892 37.3673504,1.25146026 37.3377415,1.18019226 C37.3377415,1.18019226 36.9219541,0.305351551 36.9001489,0.261856262 C36.8525222,0.166947028 36.7745979,0.117484037 36.6540964,0.117484037 L36.0463099,0.117484037 C36.0141761,0.117484037 36.006028,0.140895701 36.0149795,0.162356411 C36.0238163,0.183817121 36.9540877,2.19825757 36.9540877,2.19825757 L36.9540877,2.19825757 Z M39.0397961,1.90182404 C39.2744871,2.11069323 39.6344997,2.21489832 40.0290559,2.21489832 C40.4525325,2.21489832 40.774214,2.10552886 41.0134956,1.89700396 C41.2364807,1.69903727 41.3585889,1.37437189 41.3585889,1.12338449 C41.3585889,0.802735738 41.2465799,0.543370654 41.0232505,0.345403963 C40.783969,0.136534766 40.4525325,0.0324444112 40.0290559,0.0324444112 C39.6045463,0.0324444112 39.2886029,0.14124 39.0528792,0.349764897 C38.8296645,0.547502131 38.7039987,0.863215963 38.7039987,1.12338449 C38.7039987,1.44391839 38.8375831,1.72130131 39.0397961,1.90182404 L39.0397961,1.90182404 Z M39.6046612,0.920253421 C39.8112351,0.533501047 40.0655507,0.382587252 40.3500489,0.506302093 C40.6381049,0.631623589 40.6695499,0.916121832 40.4531064,1.32697458 C40.2551397,1.70202112 40.0008241,1.8599354 39.707489,1.7405815 C39.4164492,1.62180146 39.3854632,1.32915499 39.6046612,0.920253421 L39.6046612,0.920253421 Z M33.470103,2.15992665 L34.1994239,2.15992665 C34.2744791,2.15992665 34.3174006,2.11287364 34.3174006,2.04378617 L34.3174006,0.554387888 C34.81226,0.424361047 35.1299249,0.559552262 35.1299249,0.771061121 L35.1299249,2.04918011 C35.1299249,2.11769383 35.167223,2.15981193 35.2454915,2.15981193 L35.9783701,2.15981193 L35.9783701,0.805834318 C35.9783701,0.123222168 35.1057099,-0.200869458 33.6087371,0.221689121 C33.5247304,0.249232262 33.4645944,0.325549907 33.4645945,0.431591215 L33.4645945,2.1596972 L33.4699883,2.16382867 L33.4699883,2.15992665 L33.470103,2.15992665 Z M43.9251555,2.05606587 C44.0091622,2.02806359 44.0701016,1.95163121 44.0701016,1.84616378 L44.0701016,0.117484037 L43.3350426,0.117484037 C43.2599874,0.117484037 43.2167216,0.164537047 43.2167216,0.23419828 L43.2167216,1.72325226 C42.7218622,1.8532791 42.403853,1.71751413 42.4038532,1.50623484 L42.4038532,0.22788628 C42.4038532,0.160405458 42.3674732,0.117483925 42.2888603,0.117484037 L41.5557523,0.117484037 L41.5557523,1.4716911 C41.5557523,2.15418852 42.4288716,2.47839488 43.9251555,2.05606587 L43.9251555,2.05606587 Z" id="形状" fill="#717071"></path>
                <path d="M44.0686097,12.8917883 L41.081206,12.8917883 L41.081206,13.2403245 C41.081206,15.8542884 40.1782483,17.130686 38.3739394,17.0680252 C37.8137796,17.0680252 37.0669,16.9133242 36.1334152,16.6011681 L36.1334152,12.8917883 L33.0525942,12.8917883 L33.0525942,23.9764322 L33.4567905,23.9764322 L33.4567905,23.9740222 C33.5017778,23.9753994 33.551126,23.9763175 33.603458,23.9764322 L33.6275584,23.9764322 C34.0206228,23.9760879 34.5839959,23.9323631 35.0050624,23.7217725 C35.9270708,23.254112 36.1227423,22.7990754 36.1334152,20.9222363 L36.1334152,19.2152467 C37.0042392,19.4632503 37.7511188,19.5886865 38.3739394,19.5886866 C42.2321671,19.6499703 44.1300081,17.5347676 44.0687245,13.2404392 L44.0687245,12.8917883 L44.0686097,12.8917883 Z" id="路径" fill="#D61519"></path>
                <path d="M38.3738246,17.0679104 C37.8136649,17.0679104 37.0667853,16.9132095 36.1333005,16.6010532 L36.1333005,14.2967207 C35.176863,14.8319768 34.1144991,15.0860628 33.0524794,15.3455427 L33.0524794,19.195737 C34.1200077,19.9480105 35.1586156,20.7161214 36.1333005,21.5494178 L36.1333005,19.215132 C37.0041244,19.4631356 37.7510041,19.5885718 38.3738246,19.5885718 C39.9653622,19.6138197 41.2224795,19.2676936 42.1468981,18.5521443 C41.4744998,17.8637939 40.8221852,17.1449166 40.1605746,16.4465818 C39.7218344,16.8863548 39.1265572,17.0940765 38.3738246,17.0679104 Z M44.0686097,12.8917883 L41.081206,12.8917883 L41.081206,13.2403245 C41.081206,13.7153298 41.0512527,14.1461513 40.9915757,14.5326741 C42.002411,14.4782763 43.013361,14.4841292 44.0243111,14.4917036 C44.0593138,14.0970325 44.0750364,13.6809008 44.0687245,13.2403245 L44.0687245,12.8917883 L44.0686097,12.8917883 Z" id="形状" fill="#E60014"></path>
                <path d="M39.1207043,5.77175764 C38.0003849,5.77175764 36.9734827,6.05178011 36.0398832,6.61193989 L36.0398832,5.80021895 L35.3927328,5.80021895 C35.017342,5.81249865 34.5448615,5.869536 34.1796847,6.05223914 C33.2793665,6.50888232 33.0717597,6.95416396 33.0524794,8.7220929 L33.0524794,12.5951251 L36.1333005,12.5951251 L36.1333005,9.4126237 C37.0667853,8.85246393 37.9683658,8.57244146 38.840567,8.57244146 C40.011038,8.52435566 40.7226853,9.22085417 40.9760827,10.6621667 L43.2732999,8.06415477 C42.4810887,6.57395316 41.0972727,5.80928523 39.1207043,5.77175764 L39.1207043,5.77175764 Z" id="路径" fill="#0096FF"></path>
                <path d="M43.2719228,8.06140049 L40.9763123,10.6640029 C41.0460884,11.0616578 41.0810913,11.5156614 41.0810911,12.0265876 L41.0810911,12.5951251 L44.068495,12.5951251 L44.068495,12.0265876 C44.0686097,10.3792751 43.8025884,9.05811981 43.2719228,8.06140049 L43.2719228,8.06140049 Z" id="路径" fill="#69CD00"></path>
                <path d="M35.3927328,5.80033368 C35.017342,5.81261338 34.5448615,5.86965073 34.1796847,6.05235387 C33.2793665,6.50899705 33.0717597,6.95427869 33.0524794,8.72220763 L33.0524794,9.89922011 L36.0398832,6.52058826 L36.0398832,5.80021895 L35.3927328,5.80021895 L35.3927328,5.80033368 Z M27.1037231,5.97557731 C27.0977554,5.97408538 27.0916729,5.97270819 27.0857052,5.97110153 C26.98342,5.94525189 26.8804809,5.92206188 26.776992,5.90155492 C26.7616137,5.89845634 26.388633,5.83510699 26.3848457,5.83453312 C26.264,5.81766292 25.574961,5.76315039 25.5383516,5.76165847 C25.4449342,5.75798602 24.8772001,5.75477271 24.7415499,5.75924837 L24.738566,5.75924837 C23.9747014,5.75924837 23.2673004,5.79298879 22.6149857,5.85966628 C22.2005753,5.93116385 21.628136,6.03754946 21.3248166,6.17159305 C20.6901755,6.45207454 20.2521239,6.95978748 20.2498286,8.84511914 L20.2493695,8.84557817 C20.4421214,8.81559395 20.635002,8.78644381 20.8280061,8.75812856 C21.120423,8.7164695 21.4069871,8.68066329 21.6903377,8.6480705 C21.9577291,8.61682889 22.2255352,8.58924486 22.4936808,8.56532613 C23.2108367,8.50289484 23.8968919,8.47144979 24.5516166,8.47144979 C24.6581169,8.46387544 25.1366799,8.46353114 25.1448281,8.46399017 C25.3283347,8.47397462 25.4980696,8.49623865 25.654492,8.53055293 C26.6334231,8.74550467 27.0773276,9.44234748 26.9832216,10.6225733 L26.9832216,10.9967016 L25.6738871,10.9967016 C22.9615709,10.8787249 21.1897402,11.4224735 20.2435166,12.5950104 L30.0696662,12.5950104 L30.0696662,10.6225733 C30.2113988,8.06874527 29.2220243,6.52058826 27.1037231,5.97557731 Z" id="形状" fill="#FFB400"></path>
                <path d="M0.00959708411,12.8897225 L0.00959708411,19.6076225 C0.00959708411,19.6076225 1.14231095,19.7319112 1.86061458,19.3728168 C2.81372389,18.889319 2.99332845,18.4197075 2.99332845,16.3890855 L2.99332845,12.8897225 L0.00959708411,12.8897225 Z" id="路径" fill="#D61519"></path>
                <path d="M1.20164355,3.54156213 C0.375691963,3.95459529 0.0177451963,4.72546049 0.0177453084,6.81805469 C0.0177453084,6.81805469 0.430778467,6.40502153 1.09158561,6.15724755 C1.57347679,5.97833159 1.9175372,5.74421439 2.16542591,5.56529843 C2.88131944,5.0284357 2.9913775,4.38140007 2.9913775,3.25247338 C2.97760587,3.25247338 1.84867918,3.18361536 1.20164355,3.54156213 L1.20164355,3.54156213 Z M24.7518786,5.75936321 C23.988014,5.75936321 23.280613,5.79310363 22.6282983,5.85978112 C22.2138879,5.93127869 21.6414486,6.0376643 21.338129,6.17170778 C20.7033731,6.45218927 20.2654364,6.95990221 20.2631411,8.84557817 C21.8207088,8.59711559 23.2555945,8.47156452 24.5648143,8.47156452 C24.9877171,8.44149656 25.3546154,8.46180964 25.6678045,8.53066766 L27.7461682,6.1802003 C26.9500551,5.86046972 25.9526472,5.71954037 24.7518786,5.75936321 L24.7518786,5.75936321 Z" id="形状" fill="#69CD00"></path>
                <path d="M8.56187383,5.77565955 L8.56187383,5.7779548 C8.51636245,5.77661877 8.4708361,5.77585362 8.42530553,5.77565955 L8.37721974,5.77565955 C7.98484396,5.77703675 7.42984856,5.82202396 7.01371682,6.03020456 C6.06382093,6.5119809 5.88479013,6.98010045 5.88479013,9.00383675 L5.88479013,9.28925316 L5.88375723,9.28925316 L5.88375723,11.451394 L8.87116093,8.07276202 L8.87116093,5.77554482 L8.56187383,5.77554482 L8.56187383,5.77565955 Z" id="路径" fill="#FFB400"></path>
                <path d="M41.0893541,12.5952398 L44.068495,12.5952398 L44.068495,13.5952398 L41.0893541,13.5952398 L41.0893541,12.5952398 Z M33.0524794,12.5952398 L36.1333005,12.5952398 L36.1333005,13.5952398 L33.0524794,13.5952398 L33.0524794,12.5952398 Z" id="形状" fill="#FFFFFF"></path>
                <path d="M22.0597608,12.5952398 L23.3989339,11.0807085 C21.9329474,11.2818886 20.8936508,11.7905196 20.2434019,12.5952398 L22.0597608,12.5952398 Z" id="路径" fill="#69CD00"></path>
                <polygon id="路径" fill="#FFFFFF" points="13.8251489 12.5952398 16.9017238 12.5952398 16.9017238 12.8917883 13.8251489 12.8917883"></polygon>
                <polygon id="路径" fill="#69CD00" points="16.9017238 12.5952398 16.9017238 7.74224366 13.8209027 9.89887581 13.8209027 12.5952398"></polygon>
                <polygon id="路径" fill="#FFFFFF" points="5.88364239 12.5952398 8.87104621 12.5952398 8.87104621 12.8917883 5.88364239 12.8917883"></polygon>
                <path d="M0.00959708411,12.8897225 L0.00959708411,15.3022769 C1.00129098,15.3904029 1.99767718,15.4137494 2.99241028,15.3721678 L2.99241028,12.8897225 L0.00959708411,12.8897225 L0.00959708411,12.8897225 Z" id="路径" fill="#E60014"></path>
                <polygon id="路径" fill="#FFFFFF" points="0.00695753271 12.5931741 2.99286942 12.5931741 2.99286942 12.8897225 0.00695753271 12.8897225"></polygon>
                <path d="M19.4223851,15.2941286 L19.4223851,15.7609858 C19.4976699,18.3152729 20.8533689,19.5885718 23.7168283,19.5885718 C24.8371477,19.5885718 25.9573524,19.3391911 27.0776719,18.8416922 L27.0776719,19.6123279 L30.0650757,19.6123279 L30.0650757,12.8916735 L20.0453204,12.8916735 C19.6344677,13.534348 19.4306481,14.3356255 19.4223851,15.2941286 L19.4223851,15.2941286 Z M25.6773299,13.520347 L26.9843693,13.520347 L26.9843693,16.4144481 C26.2374896,16.9133242 25.2718711,17.1613277 24.090268,17.1613277 C23.031347,17.1613277 22.5244374,16.7586233 22.4503004,15.9432299 L22.4379059,15.3007849 C22.4132318,14.040569 23.4366911,13.4590633 25.6773299,13.520347 L25.6773299,13.520347 Z" id="形状" fill="#D61519"></path>
                <path d="M22.5533578,16.3937907 C21.6322674,15.4449276 20.6379582,14.5755956 19.6334348,13.7953198 C19.4969813,14.2427819 19.4270904,14.7423467 19.4223851,15.2941286 L19.4223851,15.7609858 C19.4976699,18.3152729 20.8533689,19.5885718 23.7168283,19.5885718 C24.1567161,19.5885718 24.5966038,19.5495523 25.0363769,19.4726609 C24.468069,18.5954101 23.8131147,17.762458 23.1028446,16.9789689 C22.8385447,16.8515816 22.6582515,16.6565988 22.5533578,16.3937907 L22.5533578,16.3937907 Z M29.1631507,12.8897225 C28.428436,14.9267713 27.7039353,16.9564752 26.8307012,18.9471597 C26.9134799,18.9131702 26.9957735,18.8780109 27.0775571,18.8416922 L27.0775571,19.6123279 L27.7197726,19.6123279 C28.0964258,19.600622 28.5730378,19.5440437 28.9408542,19.3601928 C29.8065139,18.9211083 30.0317943,18.4929265 30.0649608,16.8891092 L30.0649608,12.8897225 L29.1631507,12.8897225 L29.1631507,12.8897225 Z" id="形状" fill="#E60014"></path>
                <path d="M2.99401705,12.5920265 L2.99401705,5.68247181 C2.99401705,5.68247181 2.68943518,6.09780022 2.09427264,6.45769794 C1.67894422,6.69296277 1.3190465,6.81759566 0.903718093,7.05297521 C0.183922654,7.41287293 0.00397368224,7.77277065 0.00397368224,8.31273207 L0.00397368224,12.5921412 L2.99401705,12.5921412 L2.99401705,12.5920265 Z" id="路径" fill="#FFB400"></path>
                <polygon id="路径" fill="#69CD00" points="8.87104621 12.5952398 8.87104621 7.43284183 5.88364239 9.99355559 5.88364239 12.5952398"></polygon>
                <path d="M16.136023,5.77565955 C15.7651079,5.78966064 15.3066285,5.84819002 14.9499441,6.02653222 C14.0000482,6.5084234 13.8210174,6.97642811 13.8210174,9.00016441 L13.8210174,9.28569544 L13.8209027,9.28569544 L13.8209027,12.2011427 L16.9017238,8.71692852 L16.9017238,5.77565955 L16.136023,5.77565955 L16.136023,5.77565955 Z" id="路径" fill="#0096FF"></path>
                <path d="M8.56187383,5.77565955 L8.56187383,5.7779548 C8.51636245,5.77661877 8.4708361,5.77585362 8.42530553,5.77565955 L8.37721974,5.77565955 C7.98484396,5.77703675 7.42984856,5.82202396 7.01371682,6.03020456 C6.06382093,6.5119809 5.88479013,6.98010045 5.88479013,9.00383675 L5.88479013,9.28925316 L5.88375723,9.28925316 L5.88375723,11.451394 L8.87116093,8.07276202 L8.87116093,5.77554482 L8.56187383,5.77554482 L8.56187383,5.77565955 Z" id="路径" fill="#FFB400"></path>
                <path d="M13.8210174,12.8917883 L13.8210174,15.9477057 C12.7006979,16.6333017 11.6417769,16.9746079 10.6468937,16.9746079 C9.4639135,16.9746079 8.87311189,16.1344256 8.873112,14.4539465 L8.873112,12.8917883 L5.88570819,12.8917883 L5.88570819,14.4539465 C5.82304744,17.9402264 7.25403118,19.6498554 10.1800366,19.5885718 C11.4870759,19.5885718 12.7006979,19.3085493 13.8210174,18.7483896 L13.8210174,19.5876537 L14.2232628,19.5876537 L14.2232628,19.5828336 C14.607146,19.5945395 15.2847086,19.5739968 15.7715346,19.3305839 C16.7214305,18.8488076 16.9004613,18.380688 16.9004613,16.3569517 L16.9004613,16.0714206 L16.9018385,16.0714206 L16.9018385,12.8915587 L13.8210174,12.8915587 L13.8210174,12.8917883 Z" id="路径" fill="#D61519"></path>
                <path d="M5.88559346,12.8917883 L5.88559346,14.4539465 C5.88216867,14.6610426 5.88450307,14.8681939 5.89259394,15.0751603 C6.90081363,14.905659 7.8965193,14.6686757 8.87299716,14.3658083 L8.87299716,12.8917883 L5.88559346,12.8917883 L5.88559346,12.8917883 Z M13.8210174,12.8917883 L13.8210174,15.9477057 C12.7006979,16.6333017 11.6417769,16.9746079 10.6468937,16.9746079 C10.1159987,16.9746079 9.70537548,16.8039548 9.41295858,16.4655178 C8.80436871,17.2869936 8.15285742,18.0890744 7.50157559,18.8970081 C8.18063013,19.3809649 9.0732591,19.611754 10.1801513,19.5885718 C10.8920281,19.5885718 11.5759027,19.5047945 12.2323488,19.3387321 C13.4581358,17.6579086 15.0171953,16.1442953 16.6097659,14.8930309 C16.6958384,14.8413874 16.7944201,14.8023679 16.9018385,14.7720703 L16.9018385,12.8917883 L13.8210174,12.8917883 L13.8210174,12.8917883 Z" id="形状" fill="#E60014"></path>
                <path d="M30.0681742,12.5952398 L20.2478776,12.5952398 C20.1759864,12.6915745 20.1076189,12.7904892 20.0429104,12.8917883 L30.0680595,12.8917883 L30.0680595,12.5952398 L30.0681742,12.5952398 Z" id="路径" fill="#FFFFFF"></path>
                <path d="M90.2746144,20.1817834 L90.2746144,9.30887764 C88.9917901,9.11240288 87.7598059,9.01301787 86.5763667,9.01301787 C83.4698387,8.96447293 81.9165172,10.5663393 81.9165172,13.8207972 L81.9165172,15.0782588 C81.8171321,18.284172 83.3461237,19.836231 86.5023443,19.7381084 C87.2419938,19.7381084 87.9561659,19.6884158 88.6472706,19.5901785 L88.6472706,20.1818981 C88.6958156,21.709742 87.9076211,22.4493916 86.2803921,22.4008468 C85.3340538,22.4008468 84.4472777,22.3652702 83.6170799,22.2958384 C82.5355504,22.3174139 82.515352,23.2607684 82.5163849,23.3640553 C83.6479512,23.609075 84.9026585,23.732216 86.2803921,23.732216 C89.0414826,23.7806461 90.3728518,22.5972068 90.2746144,20.1817834 L90.2746144,20.1817834 Z M88.6473853,18.3326021 C88.2035956,18.480532 87.4881611,18.5544396 86.502459,18.5544396 C84.4314403,18.6539393 83.4444758,17.4947152 83.5438609,15.0781441 L83.5438609,13.8207972 C83.4941684,11.4539187 84.5053479,10.2958421 86.5764814,10.344387 C87.3646759,10.344387 88.0557805,10.3940796 88.6475002,10.492317 L88.6475002,18.3326021 L88.6473853,18.3326021 Z M74.1538119,13.746775 L73.4141624,13.4509151 C72.0827933,12.9585804 71.441381,12.3413834 71.4910736,11.6018486 C71.5396185,10.7639616 72.279268,10.344387 73.7100222,10.344387 C74.2700671,10.344387 74.9092988,10.3782422 75.6238152,10.4443459 C76.7335764,10.3805375 76.7277234,9.45405331 76.7253135,9.37888329 C75.7435133,9.13558508 74.7137421,9.01301787 73.6359999,9.01301787 C71.2194288,9.06271043 69.9620821,9.92607477 69.8638446,11.6018486 C69.7644596,12.9332178 70.7259465,13.9942046 72.7484204,14.7823991 L73.48807,15.0782588 C74.9176765,15.6699785 75.6329963,16.3357204 75.6329963,17.0752553 C75.6329963,18.0622198 74.8679841,18.5545544 73.34014,18.5545543 C72.6432972,18.5545543 71.9560945,18.5264373 71.2783024,18.4706624 L71.2783024,18.4722691 C70.2780253,18.4722691 70.162344,19.1796701 70.1505233,19.3987533 C71.3748184,19.6733819 72.4632336,19.812016 73.4140476,19.8120159 C75.9774009,19.8605609 77.2602252,18.9499139 77.2602252,17.0753701 C77.3088849,15.7437713 76.2733755,14.6343544 74.1538119,13.746775 L74.1538119,13.746775 Z M68.4973578,18.4181007 L68.4973578,18.2586945 C67.3738775,18.4552085 66.2355073,18.5541972 65.0949699,18.5545543 C62.9742587,18.6042469 61.9387493,17.5190449 61.9884418,15.3000963 L61.9884418,15.0782588 L69.1630997,15.0782588 L69.1630997,14.1166571 C69.1134072,10.7639618 67.6341082,9.06271043 64.7252025,9.01301787 C61.9145343,9.11251761 60.4594503,10.8136542 60.3612128,14.1166571 L60.3612128,14.9302142 C60.3115202,18.2343647 61.864727,19.860446 65.0210623,19.8119012 C65.7581871,19.8119012 66.4402254,19.7648482 67.0714237,19.6741853 C68.245108,19.4520035 68.4615517,18.7447172 68.4973578,18.4181007 Z M61.9884418,13.5249375 C61.9884418,11.4539187 62.9003511,10.4184094 64.7252025,10.4184094 C66.5489064,10.3698645 67.4618485,11.4053739 67.4618484,13.5249375 L67.4618484,13.7468897 L61.9884418,13.7468897 L61.9884418,13.5249375 Z M97.2625524,9.01301787 C96.275588,9.01301787 95.1176261,9.43259249 93.7862569,10.2704795 L93.7862569,9.23497009 L93.7538937,9.23497009 C92.0825956,9.2750225 92.1599461,10.6946447 92.1599461,10.6946447 L92.159028,10.6943004 L92.159028,19.5160414 L92.1859974,19.5160414 C93.5594847,19.4630208 93.7614681,18.5911639 93.7862569,18.2355123 L93.7862569,11.5278264 C95.3141009,10.6899394 96.4236326,10.2958422 97.1146226,10.344387 C98.2980619,10.2958421 98.8897815,11.1834216 98.8897815,13.0071253 L98.8897815,19.5160414 L98.9881336,19.5160414 C100.428528,19.460496 100.580475,18.5041733 100.590918,18.1874265 L100.590918,18.1085842 C100.590344,18.0944683 100.589656,18.0859759 100.589656,18.0859757 L100.590918,18.0864348 L100.590918,13.0071253 C100.639463,10.2958421 99.5299312,8.96447293 97.2625524,9.01301787 L97.2625524,9.01301787 Z" id="形状" fill="#64696B"></path>
                <path d="M58.299949,5.82397492 C57.0396183,5.85840393 57.0981476,6.93121133 57.0981476,6.93121133 L57.0909175,6.92891607 L57.0909175,9.79501503 C56.3603343,9.61322994 55.584649,9.52118972 54.7631732,9.52118983 C52.1614889,9.52118983 50.8606468,10.9589446 50.8606468,13.8344541 L50.8606468,15.5460341 C50.8606468,18.1937384 52.0469551,19.5169595 54.4208343,19.5169595 C55.3333174,19.5169595 56.2458004,19.2880067 57.1594312,18.8323964 L57.1594312,19.3116479 L58.597186,19.3116479 L58.597186,5.82397492 L58.299949,5.82397492 L58.299949,5.82397492 Z M57.0909175,17.7368658 C56.1772867,18.1476037 55.3793374,18.35303 54.6946595,18.35303 C53.0964656,18.3990501 52.3208952,17.4630405 52.3668006,15.5460341 L52.3668006,13.8344541 C52.3207804,11.7805351 53.1648646,10.7771595 54.8999711,10.8220319 C55.7215616,10.8220319 56.451112,10.9139573 57.0908028,11.0958572 L57.0908028,17.7368658 L57.0909175,17.7368658 Z" id="形状" fill="#63696B"></path>
                <path d="M78.8671412,7.93676748 C80.1918541,7.93676748 80.1304558,6.82815387 80.1304557,6.82815387 L80.1328658,6.82895731 L80.1328658,6.09929215 L79.7135206,6.09929215 C78.5734618,6.19454568 78.6282039,7.1999871 78.6282039,7.19998699 L78.6269416,7.19952796 L78.6269416,7.94755525 L78.8671412,7.94755525 L78.8671412,7.93676748 Z" id="路径" fill="#F50F2D"></path>
                <path d="M80.1328658,18.5109443 L80.1328658,10.0011299 L79.8177257,10.0011299 C78.570019,10.0421004 78.6282039,11.1077926 78.6282039,11.1077926 L78.6269416,11.1073336 L78.6269416,19.5159266 L79.0936839,19.5159266 C79.9834439,19.4212468 80.1149627,18.7573411 80.1328658,18.5109443 Z" id="路径" fill="#64696B"></path>
            </g>
        </g>
    </g>
</svg>